<?xml version="1.0" encoding="UTF-8"?>
<svg id="Calque_1" data-name="Calque 1" xmlns="http://www.w3.org/2000/svg" version="1.1" viewBox="0 0 325.1 325.1">
  <defs>
    <style>
      .cls-1 {
        fill: #136d7c;
      }

      .cls-1, .cls-2, .cls-3 {
        stroke-width: 0px;
      }

      .cls-2 {
        fill: #fff;
      }

      .cls-3 {
        fill: #2c91ad;
      }
    </style>
  </defs>
  <rect class="cls-1" x="9.6" y="64.9" width="305.9" height="227.5"/>
  <rect class="cls-3" x="9.6" y="32.7" width="305.9" height="243.6"/>
  <rect class="cls-1" x="303.1" y="32.7" width="12.2" height="254.7"/>
  <g>
    <g>
      <path class="cls-2" d="M217.7,214.2c-14.8,3.6-34.4,5.6-55.2,5.6s-40.4-2-55.2-5.6c-11.7-2.8-19.3-6.4-23.2-10.7v26.8c0,7.5,8.2,13.2,25.2,17.3,14.3,3.5,33.1,5.4,53.2,5.4s38.9-1.9,53.2-5.4c16.9-4.1,25.2-9.8,25.2-17.3s0-21.1,0-25.9c0-.3,0-.6,0-1-3.8,4.4-11.5,7.9-23.2,10.8Z"/>
      <path class="cls-2" d="M188.3,147.9c2.1,7.3,8.6,10.6,14.1,10.6s6.4-.7,9.9-3.9l13.7-12.7c-12.4-10.6-28.1-18.2-45.7-21.3l7.9,27.4Z"/>
      <path class="cls-2" d="M122.7,158.5c5.5,0,12-3.3,14.1-10.6l7.9-27.4c-17.6,3.1-33.3,10.6-45.7,21.3l13.7,12.7c3.5,3.3,7.3,3.9,9.9,3.9Z"/>
    </g>
    <path class="cls-2" d="M255.9,107.9c-4.4-1.5-9.5.8-13.5,5.4-2.3-2.2-5.1-3.3-7.9-3.1-4.4.4-8,4.3-9.7,9.9,1.4,0,2.8.2,4.2.7,6.7,2.3,10.2,9.7,7.9,16.4-.1.3-.2.6-.4.9l-21.2,19.7c-10.4,9.7-27.4,5-31.4-8.7l-12.6-43.5c.8-2.3,2.1-4.4,4-5.9,0,0,0,0,0,0,0,0,0,0,0,0-2.8-2.4-4.6-5.9-4.6-9.9,0-7.1,5.8-12.9,12.9-12.9s2.9.3,4.2.7c.2-5.8-1.9-10.6-5.9-12.5-2.6-1.2-5.5-1-8.5.3-2.2-5.7-6.3-9.6-10.9-9.6s-8.7,3.8-10.9,9.6c-2.9-1.3-5.9-1.5-8.5-.3-4,1.9-6.1,6.7-5.9,12.5,1.3-.5,2.8-.7,4.2-.7,7.1,0,12.9,5.8,12.9,12.9s-1.8,7.5-4.6,9.9c0,0,0,0,0,0,0,0,0,0,0,0,1.8,1.5,3.2,3.6,4,5.9l-12.6,43.5c-4,13.7-20.9,18.4-31.4,8.7l-21.2-19.7c-.1-.3-.3-.6-.4-.9-2.3-6.7,1.2-14,7.9-16.4,1.4-.5,2.8-.7,4.2-.7-1.7-5.5-5.3-9.4-9.7-9.9-2.8-.3-5.6.9-7.9,3.1-4-4.7-9.1-7-13.5-5.4-2,.7-3.6,2.1-4.8,4,7.2,13.2,11.9,32.7,14.5,46.6,2.2,13.9,4.7,29,6.3,39.6l2.2,2.5c3.2,3.6,10.2,6.8,20.9,9.4,14.5,3.5,33.7,5.5,54.1,5.5s39.7-1.9,54.1-5.5c10.7-2.6,17.7-5.8,20.9-9.4l2.2-2.5c1.7-10.5,4.1-25.7,6.3-39.5,2.7-13.8,7.4-33.3,14.5-46.6-1.2-1.9-2.8-3.3-4.8-4ZM78.8,123.3l-.6,3.4c-.3,1.8-2.4,2.6-3.8,1.5l-2.7-2.2c-.7-.5-1-1.4-.8-2.2l.6-3.4c.3-1.8,2.4-2.6,3.8-1.5l2.7,2.2c.7.5,1,1.4.8,2.2ZM158.8,71l1.7-3c.9-1.6,3.2-1.6,4.1,0l1.7,3c.4.7.4,1.6,0,2.4l-1.7,3c-.9,1.6-3.2,1.6-4.1,0l-1.7-3c-.4-.7-.4-1.6,0-2.4ZM172.2,186.8l-4.4,7.7c-2.3,4-8.1,4-10.5,0l-4.4-7.7c-1.1-1.9-1.1-4.2,0-6l4.4-7.7c2.3-4,8.1-4,10.5,0l4.4,7.7c1.1,1.9,1.1,4.2,0,6ZM253.3,126l-2.7,2.2c-1.4,1.2-3.5.3-3.8-1.5l-.6-3.4c-.1-.8.2-1.7.8-2.2l2.7-2.2c1.4-1.2,3.5-.3,3.8,1.5l.6,3.4c.1.8-.2,1.7-.8,2.2Z"/>
  </g>
</svg>