<?xml version="1.0" encoding="UTF-8"?>
<svg id="Calque_1" data-name="Calque 1" xmlns="http://www.w3.org/2000/svg" version="1.1" viewBox="0 0 325.14 325.14">
  <defs>
    <style>
      .cls-1 {
        fill: #000;
      }

      .cls-1, .cls-2 {
        stroke-width: 0px;
      }

      .cls-2 {
        fill: #fff;
      }
    </style>
  </defs>
  <path class="cls-1" d="M161.5,161.77"/>
  <g>
    <path class="cls-2" d="M266.93,286.98h-128.72c-2.37,0-4.74-.56-6.86-1.62l-18.12-9.06c-5.23-2.61-8.48-7.87-8.48-13.72v-92.73c0-4.73,2.24-9.28,5.99-12.16l11.02-8.47c.13-.1.24-.21.35-.33,3.39-3.99,33.32-39.59,39.69-61.13.04-.15.07-.36.07-.6v-36.48c0-5.8,2.78-11.37,7.44-14.9,6.18-4.67,18.95-11.24,34.99-2.71,2.39,1.27,4.39,3.14,5.81,5.4,3.23,5.19,11.22,19.2,15.56,37.16,1.31,5.42,1.49,10.95.54,16.44l-6.36,36.81h68.21c11.78,0,22.15,8.24,24.66,19.59.53,2.39.8,4.96.8,7.64,0,11.81-5.54,18.65-10.58,22.42,2.48,3.48,4.59,8.26,4.59,14.43,0,8.5-4.69,14.99-8.54,18.88,1.8,3.13,3.47,7.58,3.47,13.36,0,8.44-4.91,16.13-10.45,20.88,1.63,3.49,3.08,8.36,3.08,14.59,0,15.5-14.83,26.31-28.15,26.31ZM188.64,41.97c-3.96,0-7.81,1.4-11.5,4.19-1.45,1.1-2.28,2.75-2.28,4.53v36.48c0,1.49-.2,2.93-.6,4.28-6.98,23.62-36.43,59.02-42.26,65.88-.69.81-1.47,1.56-2.33,2.21l-11.02,8.47c-.57.44-.91,1.13-.91,1.85v92.73c0,.89.5,1.69,1.29,2.09l18.12,9.06c.32.16.68.25,1.05.25h128.72c7,0,15.15-5.81,15.15-13.31,0-5.16-1.48-8.67-2.72-10.69-2.65-4.32-1.45-9.89,2.73-12.67,2.96-1.97,7.36-6.81,7.36-12.11,0-4.54-1.86-7.34-2.96-8.6-1.5-1.71-2.23-3.98-2.02-6.23.21-2.25,1.35-4.35,3.14-5.75,2.08-1.63,6.92-6.05,6.92-11.66,0-3.36-1.28-6.31-3.8-8.77-2.1-2.06-3.09-5.02-2.65-7.94.44-2.9,2.27-5.43,4.88-6.77,5.01-2.56,7.55-7.06,7.55-13.37,0-1.74-.17-3.37-.49-4.83-1.2-5.44-6.23-9.39-11.96-9.39h-74.12c-2.37,0-4.61-1.04-6.14-2.86-1.53-1.81-2.17-4.2-1.77-6.54l7.36-42.63c.64-3.73.52-7.49-.37-11.17-3.89-16.11-11.06-28.68-13.96-33.34-.2-.33-.51-.6-.88-.8-3.24-1.72-6.43-2.59-9.54-2.59Z"/>
    <path class="cls-2" d="M106.73,295.73H21.8c-6.08,0-11.02-4.94-11.02-11.02v-124.08c0-6.08,4.94-11.02,11.02-11.02h84.93c6.08,0,11.02,4.94,11.02,11.02v124.08c0,6.08-4.94,11.02-11.02,11.02ZM23.79,282.73h80.96v-120.11H23.79v120.11Z"/>
  </g>
</svg>