<?xml version="1.0" encoding="UTF-8"?>
<svg id="Calque_1" data-name="Calque 1" xmlns="http://www.w3.org/2000/svg" version="1.1" viewBox="0 0 325.14 325.14">
  <defs>
    <style>
      .cls-1 {
        fill: #000;
      }

      .cls-1, .cls-2, .cls-3 {
        stroke-width: 0px;
      }

      .cls-2 {
        fill: #fff;
      }

      .cls-3 {
        fill: #2c91ad;
      }
    </style>
  </defs>
  <path class="cls-1" d="M161.5,161.77"/>
  <g>
    <g>
      <path class="cls-3" d="M114.13,162.28l11.02-8.47c.49-.38.93-.8,1.34-1.27,4.62-5.43,34.3-40.9,40.98-63.5.23-.8.33-1.61.33-2.44v-36.48c0-3.83,1.81-7.4,4.86-9.71,5.55-4.2,15.5-8.81,28.01-2.16,1.36.73,2.53,1.79,3.34,3.1,2.96,4.75,10.62,18.12,14.76,35.25,1.09,4.52,1.25,9.22.46,13.81l-7.36,42.63c-.16.93.56,1.79,1.51,1.79h74.12c8.73,0,16.43,5.97,18.31,14.49.41,1.84.64,3.92.64,6.24,0,11.53-6.6,16.87-11.1,19.16-1.61.82-1.93,3-.64,4.26,2.61,2.56,5.75,6.97,5.75,13.42,0,8.35-6.31,14.34-9.4,16.77-.81.64-.93,1.81-.24,2.59,1.77,2.02,4.57,6.27,4.57,12.89,0,7.91-5.86,14.6-10.26,17.52-1.28.85-1.59,2.55-.79,3.86,1.61,2.62,3.68,7.32,3.68,14.09,0,11.05-11.05,19.81-21.65,19.81h-128.72c-1.37,0-2.73-.32-3.95-.93l-18.12-9.06c-2.99-1.5-4.89-4.56-4.89-7.91v-92.73c0-2.75,1.28-5.34,3.45-7.01Z"/>
      <path class="cls-2" d="M266.36,286.41h-128.72c-2.37,0-4.74-.56-6.86-1.62l-18.12-9.06c-5.23-2.61-8.48-7.87-8.48-13.72v-92.73c0-4.73,2.24-9.28,5.99-12.16l11.01-8.47c.13-.1.25-.21.35-.33,3.39-3.99,33.32-39.59,39.69-61.13.04-.15.07-.36.07-.6v-36.47c0-5.8,2.78-11.37,7.44-14.89,6.18-4.67,18.95-11.24,34.99-2.71,2.39,1.27,4.4,3.14,5.81,5.41,3.23,5.19,11.22,19.19,15.56,37.15,1.31,5.42,1.49,10.95.54,16.44l-6.36,36.81h68.21c11.78,0,22.15,8.24,24.66,19.59.53,2.39.8,4.96.8,7.64,0,11.82-5.54,18.65-10.58,22.42,2.48,3.48,4.59,8.26,4.59,14.43,0,8.5-4.69,14.99-8.54,18.88,1.8,3.13,3.47,7.58,3.47,13.36,0,8.44-4.91,16.13-10.45,20.88,1.63,3.49,3.08,8.36,3.08,14.59,0,15.5-14.83,26.31-28.15,26.31ZM188.07,41.4c-3.96,0-7.81,1.4-11.5,4.19-1.45,1.1-2.28,2.75-2.28,4.53v36.47c0,1.5-.2,2.94-.6,4.29-6.98,23.61-36.42,59.01-42.26,65.87-.69.81-1.47,1.55-2.32,2.21l-11.02,8.47c-.57.44-.91,1.13-.91,1.85v92.73c0,.89.5,1.69,1.29,2.09l18.12,9.06c.32.16.68.25,1.05.25h128.72c7,0,15.15-5.81,15.15-13.31,0-5.16-1.48-8.66-2.72-10.69-2.65-4.33-1.45-9.89,2.74-12.67,2.96-1.96,7.36-6.81,7.36-12.1,0-4.54-1.86-7.34-2.96-8.61-1.49-1.7-2.23-3.97-2.02-6.22.21-2.25,1.35-4.35,3.13-5.75,2.08-1.64,6.92-6.05,6.92-11.66,0-3.36-1.28-6.31-3.8-8.77-2.1-2.06-3.09-5.02-2.65-7.93.44-2.9,2.27-5.43,4.88-6.77,5.02-2.56,7.56-7.06,7.56-13.37,0-1.74-.17-3.36-.49-4.84-1.2-5.44-6.23-9.39-11.96-9.39h-74.12c-2.37,0-4.61-1.04-6.14-2.86-1.53-1.82-2.17-4.2-1.77-6.54l7.36-42.63c.65-3.73.52-7.49-.37-11.17-3.89-16.12-11.06-28.68-13.96-33.33-.2-.33-.51-.6-.88-.8-3.24-1.72-6.43-2.59-9.54-2.59Z"/>
    </g>
    <g>
      <rect class="cls-3" x="16.71" y="155.55" width="93.96" height="133.11" rx="4.52" ry="4.52"/>
      <path class="cls-2" d="M106.16,295.16H21.23c-6.08,0-11.02-4.94-11.02-11.02v-124.08c0-6.08,4.94-11.02,11.02-11.02h84.92c6.08,0,11.02,4.94,11.02,11.02v124.08c0,6.08-4.94,11.02-11.02,11.02ZM23.21,282.16h80.96v-120.11H23.21v120.11Z"/>
    </g>
  </g>
</svg>