<?xml version="1.0" encoding="UTF-8"?>
<svg id="Calque_1" data-name="Calque 1" xmlns="http://www.w3.org/2000/svg" version="1.1" viewBox="0 0 325.1 325.1">
  <defs>
    <style>
      .cls-1 {
        fill: #fff;
        stroke-width: 6px;
      }

      .cls-1, .cls-2 {
        stroke: #fff;
        stroke-miterlimit: 10;
      }

      .cls-2 {
        fill: #2c91ad;
        stroke-width: 20px;
      }
    </style>
  </defs>
  <circle class="cls-2" cx="162.6" cy="162.6" r="138.9"/>
  <g>
    <path class="cls-1" d="M233.5,239c-4.5,0-8.2-3.7-8.2-8.2v-18.9c0-19.3-15.7-35-35-35h-55.5c-19.3,0-35,15.7-35,35v18.9c0,4.5-3.7,8.2-8.2,8.2s-8.2-3.7-8.2-8.2v-18.9c0-28.4,23.1-51.4,51.4-51.4h55.5c28.4,0,51.4,23.1,51.4,51.4v18.9c0,4.5-3.7,8.2-8.2,8.2h0Z"/>
    <path class="cls-1" d="M162.6,145.7c-21.8,0-39.4-17.7-39.4-39.4s17.7-39.4,39.4-39.4,39.4,17.7,39.4,39.4-17.7,39.4-39.4,39.4ZM162.6,83.3c-12.7,0-23,10.3-23,23s10.3,23,23,23,23-10.3,23-23-10.3-23-23-23Z"/>
  </g>
</svg>