<?xml version="1.0" encoding="UTF-8"?>
<svg id="Calque_1" data-name="Calque 1" xmlns="http://www.w3.org/2000/svg" version="1.1" viewBox="0 0 325.1 325.1">
  <defs>
    <style>
      .cls-1 {
        fill: #2c91ad;
        stroke: #2c91ad;
        stroke-linecap: round;
        stroke-miterlimit: 10;
      }

      .cls-2 {
        fill: #f9fbfc;
      }

      .cls-2, .cls-3 {
        stroke-width: 0px;
      }

      .cls-3 {
        fill: #136d7c;
      }
    </style>
  </defs>
  <rect class="cls-3" x="10.6" y="64.9" width="305.9" height="227.5"/>
  <rect class="cls-1" x="10.6" y="32.7" width="305.9" height="243.6"/>
  <rect class="cls-3" x="304.1" y="32.7" width="12.2" height="254.7"/>
  <path class="cls-2" d="M184.6,139.1c10.8-6.9,17.9-19,17.9-32.8,0-21.5-17.4-39-39-39s-39,17.4-39,39,7.2,25.8,18,32.8c-25.4,2.3-45.4,23.7-45.4,49.7v41.1c.1,0,2.9.9,2.9.9,26.2,8.2,49.1,10.9,67.8,10.9,36.7,0,57.9-10.5,59.2-11.1l2.6-1.3h.3v-40.4c0-26-20-47.4-45.4-49.7Z"/>
</svg>