<?xml version="1.0" encoding="UTF-8"?>
<svg id="Calque_1" data-name="Calque 1" xmlns="http://www.w3.org/2000/svg" version="1.1" viewBox="0 0 400 130">
  <defs>
    <style>
      .cls-1 {
        fill: #000;
      }

      .cls-1, .cls-2, .cls-3 {
        stroke-width: 0px;
      }

      .cls-2 {
        fill: #fff;
      }

      .cls-3 {
        fill: #2c91ad;
      }
    </style>
  </defs>
  <g>
    <path class="cls-1" d="M69.8,442.8c2.9.7,5.6,1.5,8.4,1.9,12.5,1.9,24.9-6,28.5-18.1,2.9-9.7-.7-20.4-8.9-26.8-5.2-4-11.1-5.7-17.6-5.8-11.2,0-22.5,0-33.7,0h-2.6v-16.7c.2,0,.5-.1.8-.1,13.2,0,26.3,0,39.5,0,21.9.3,39,16.8,41.6,38.1,2.2,18.2-8.1,37.1-27.6,44-8.5,2.7-26.4,1.9-29.3,10.4.7-1.6.9-3.5.9-5.3,0-7.2,0-14.5,0-21.7h0Z"/>
    <path class="cls-1" d="M43.9,493v-94.2h28.7c-1.1.9-2.1,1.7-3,2.5-4.8,4-7.2,9.1-7.2,15.4,0,15.6-.2,31.1,0,46.7.1,9-3.3,16.2-9.4,22.4-2.7,2.8-5.7,5.1-9.2,7.2h0ZM48.1,415.4c.1,0,.2,0,.4,0,.5-5.3,1.2-10.5,7.5-12.2h-7.9v12.1h0Z"/>
    <path class="cls-3" d="M69.8,422.1c0-2.5,0-5.1,0-7.6,0-7.2,4.7-11.8,11.9-12.5,9-.8,18.1,6.4,18.4,16.8.3,10.4-7.5,18.5-17.6,18.5-4.4,0-8.3-1.3-11.6-4.4-.7-.7-1.1-1.5-1.1-2.6,0-2.7,0-5.4,0-8.1h0ZM82.1,413.5c-3.3,0-5.9,2.8-5.9,6.1,0,3.2,2.9,5.9,6.2,5.9,3.1,0,5.7-2.7,5.7-5.8s-2.8-6.2-6-6.2h0Z"/>
    <path class="cls-2" d="M48.1,415.4v-12.1h7.9c-6.3,1.8-7,6.9-7.5,12.2-.1,0-.2,0-.4,0h0Z"/>
    <path class="cls-2" d="M82.1,413.5c3.2,0,6,2.8,6,6.2,0,3.1-2.6,5.8-5.7,5.8-3.2,0-6.1-2.7-6.2-5.9,0-3.3,2.6-6.1,5.9-6.1h0Z"/>
  </g>
  <g>
    <path class="cls-3" d="M6.8,456.3v-42.4c2.2.8,4.4,1.6,6.5,2.4,3.5,1.3,6.9,2.7,10.4,4,1,.4,1.4.9,1.4,2.1,0,8.2,0,16.4,0,24.5,0,1-.4,1.5-1.2,1.9-5.5,2.4-11,4.9-16.5,7.3-.2,0-.3,0-.6.1h0ZM10.7,437.1c.2,0,.3,0,.5,0,0-.2.1-.4.2-.6,1.2-4.8,1-9.8,1.1-14.7,0-1.5-.7-2-1.8-2.3v17.5h0Z"/>
    <path class="cls-3" d="M30.1,434.2v-10.6c0-1.8,1.1-3,2.5-3,1.5,0,2.6,1.2,2.6,3,0,7,0,14.1,0,21.1,0,.8-.3,1.8-.8,2.2-.6.5-1.7.7-2.5.5-1.1-.2-1.6-1.3-1.6-2.5,0-3.6,0-7.2,0-10.8,0,0,0,0,0,0Z"/>
    <path class="cls-2" d="M10.7,437.1v-17.5c1,.3,1.8.9,1.8,2.3-.1,4.9,0,9.8-1.1,14.7,0,.2-.1.4-.2.6-.2,0-.3,0-.5,0h0Z"/>
  </g>
  <g>
    <path class="cls-3" d="M138.5,416.8h13.2c2.7,0,5.2.3,7.3.8s3.9,1.3,5.4,2.4,2.6,2.3,3.3,3.8,1.1,3.2,1.1,5.1-.4,3.5-1.3,5c-.9,1.5-2.1,2.7-3.6,3.8s-3.3,1.8-5.3,2.4-4.2.8-6.5.8h-2.2v12.5h-11.5v-36.5h0ZM152.2,433.4c1.8,0,3.3-.4,4.3-1.1s1.6-1.9,1.6-3.4-.1-1.4-.4-2-.7-1-1.2-1.4-1.1-.7-1.9-.8-1.5-.3-2.3-.3h-2.3v8.9c.2,0,.6,0,.9,0s.8,0,1.4,0h0Z"/>
    <path class="cls-3" d="M205.5,453.2c-2.3.6-3.9.9-4.9.9-6.4,0-10.4-2.9-12.1-8.8l-1.4-5.9h-2.5v13.8h-11.6v-36.5h16.2c2.1,0,4.1.2,5.9.7s3.5,1.2,4.8,2.1,2.5,2,3.2,3.4,1.2,2.9,1.2,4.6-.2,2.4-.5,3.4-.8,1.9-1.4,2.7-1.3,1.5-2.2,2.1-1.9,1.2-3,1.7l.2,1.3c0,.3.1.5.2.8v.5c.1,0,.4,1.1.4,1.1.2.7.4,1.2.7,1.7s.6.8,1,1.1.9.5,1.5.6,1.4.2,2.2.2.4,0,.7,0,.7,0,1.2-.2v8.7h0ZM193.8,428c0-.7-.1-1.2-.4-1.7s-.7-.8-1.2-1-1.1-.4-1.8-.5-1.4-.1-2.2-.1h-3.6v7.3h3.7c.7-.1,1.3-.2,2-.4s1.2-.3,1.8-.6.9-.7,1.2-1.1.5-1.1.5-1.8h0Z"/>
    <path class="cls-3" d="M208,435.1c0-5.3,1.7-9.7,5-13.3,3.6-3.9,8.4-5.8,14.5-5.8s5.7.5,8.1,1.4,4.4,2.3,6.1,4,3,3.7,3.9,6.1,1.4,4.9,1.4,7.6-.2,3.3-.6,4.9-.9,3.1-1.7,4.5-1.7,2.7-2.8,3.9-2.4,2.2-3.8,3.1-3.1,1.5-4.8,2-3.7.7-5.8.7-4.1-.2-5.9-.7-3.4-1.2-4.9-2-2.7-1.9-3.8-3.1-2-2.5-2.8-3.9-1.3-2.9-1.7-4.5-.6-3.2-.6-4.8h0ZM227.5,444.5c1.4,0,2.5-.3,3.5-.9s1.8-1.3,2.4-2.2,1.1-1.9,1.4-3.1.4-2.2.4-3.3-.2-2.7-.5-3.8-.9-2.2-1.5-3-1.5-1.5-2.4-2-2-.8-3.1-.8c-1.4,0-2.6.3-3.5.9s-1.8,1.3-2.4,2.3-1.1,2-1.4,3.1-.4,2.3-.4,3.4.2,2.6.5,3.8.9,2.1,1.5,3,1.5,1.5,2.4,2,2,.7,3.2.7h0Z"/>
    <path class="cls-3" d="M252.2,416.8h15.9c3,0,5.6.5,8,1.3s4.5,2.1,6.2,3.7,3,3.5,4,5.7,1.4,4.6,1.4,7.2-.5,5.3-1.4,7.6-2.2,4.2-4,5.8-3.8,2.9-6.2,3.8-5.1,1.3-8,1.3h-15.9v-36.5h0ZM268,443.8c1.3,0,2.5-.3,3.4-.9s1.8-1.3,2.4-2.2,1.1-1.9,1.4-2.9.4-2.1.4-3.1-.2-2.3-.6-3.3-.9-1.9-1.6-2.7-1.5-1.3-2.4-1.7-2-.6-3.1-.6h-4.1v17.4h4.2Z"/>
    <path class="cls-1" d="M292.8,416.8h12.3v14.9h3.8l7.1-14.9h12.3v2.4l-8.4,15.7,9.6,16v2.4h-12.9l-7.8-14.5h-3.6v14.5h-12.3v-36.5h0Z"/>
    <path class="cls-1" d="M340.4,416.8h16.1l10.6,36.5h-12.5l-1.4-7h-9.4l-1.5,7h-12l10.1-36.5h0ZM352,439.8l-3.5-16-3.6,16h7.1Z"/>
    <path class="cls-1" d="M373.6,424.5h-7.6v-7.7h27.5v7.7h-7.6v28.8h-12.4v-28.8h0Z"/>
  </g>
  <path class="cls-1" d="M194.1,170.3"/>
  <g>
    <path class="cls-2" d="M81.7,72.3c2.6.6,5.1,1.3,7.6,1.7,11.3,1.7,22.5-5.4,25.8-16.3,2.7-8.7-.6-18.5-8-24.2-4.7-3.6-10-5.2-15.9-5.2-10.2,0-20.3,0-30.5,0-.8,0-1.5,0-2.4,0v-15.1c.2,0,.4-.1.7-.1,11.9,0,23.8,0,35.6,0,19.8.3,35.2,15.2,37.5,34.4,2,16.4-7.3,33.5-24.9,39.8-7.7,2.4-23.9,1.7-26.5,9.4.6-1.5.8-3.2.8-4.8,0-6.6,0-13.1,0-19.6Z"/>
    <path class="cls-2" d="M58.3,117.7V32.6h25.9c-1,.8-1.9,1.5-2.7,2.2-4.4,3.6-6.5,8.2-6.5,13.9,0,14.1-.2,28.1,0,42.2.1,8.1-3,14.6-8.4,20.3-2.4,2.5-5.1,4.6-8.3,6.5ZM62.1,47.6c.1,0,.2,0,.3,0,.5-4.8,1.1-9.5,6.8-11.1h-7.1v11Z"/>
    <path class="cls-3" d="M81.7,53.7c0-2.3,0-4.6,0-6.9,0-6.5,4.3-10.7,10.7-11.3,8.1-.7,16.3,5.8,16.6,15.1.3,9.4-6.8,16.7-15.9,16.7-4,0-7.5-1.2-10.4-4-.7-.6-1-1.3-1-2.3,0-2.4,0-4.9,0-7.4h0ZM92.8,45.8c-2.9,0-5.3,2.5-5.3,5.5,0,2.9,2.6,5.4,5.6,5.3,2.8,0,5.2-2.5,5.2-5.3,0-3-2.5-5.6-5.4-5.6Z"/>
    <path class="cls-1" d="M62.1,47.6v-11h7.1c-5.7,1.6-6.3,6.3-6.8,11.1-.1,0-.2,0-.3,0Z"/>
    <path class="cls-2" d="M92.8,45.8c2.9,0,5.4,2.6,5.4,5.6,0,2.8-2.4,5.2-5.2,5.3-2.9,0-5.5-2.4-5.6-5.3,0-3,2.4-5.5,5.3-5.5Z"/>
  </g>
  <g>
    <path class="cls-3" d="M24.8,84.5v-38.3c2,.8,3.9,1.5,5.9,2.2,3.1,1.2,6.3,2.4,9.4,3.6.9.3,1.3.8,1.3,1.9,0,7.4,0,14.8,0,22.2,0,.9-.3,1.4-1.1,1.7-5,2.2-9.9,4.4-14.9,6.6-.1,0-.3,0-.5.1ZM28.3,67.2c.1,0,.3,0,.4,0,0-.2.1-.3.1-.5,1.1-4.4.9-8.8,1-13.2,0-1.3-.7-1.8-1.6-2.1v15.8Z"/>
    <path class="cls-3" d="M45.9,64.6c0-3,0-5.9,0-8.9,0-.2,0-.5,0-.7,0-1.6,1-2.7,2.2-2.7,1.4,0,2.3,1.1,2.3,2.7,0,6.4,0,12.7,0,19.1,0,.7-.3,1.6-.8,2-.6.4-1.6.6-2.3.5-1-.2-1.4-1.2-1.4-2.3,0-3.3,0-6.5,0-9.8,0,0,0,0,0,0Z"/>
    <path class="cls-2" d="M28.3,67.2v-15.8c.9.3,1.6.8,1.6,2.1-.1,4.4,0,8.9-1,13.2,0,.2,0,.3-.1.5-.1,0-.3,0-.4,0Z"/>
  </g>
  <g>
    <path class="cls-3" d="M143.7,48.8h11.9c2.5,0,4.7.2,6.6.7s3.5,1.2,4.9,2.1,2.3,2.1,3,3.4,1,2.9,1,4.6-.4,3.2-1.2,4.5-1.9,2.5-3.2,3.4-2.9,1.6-4.8,2.1-3.8.7-5.8.7h-2v11.3h-10.4v-33ZM156.2,63.9c1.7,0,3-.3,3.9-1s1.4-1.7,1.4-3.1-.1-1.3-.4-1.8-.6-.9-1.1-1.3-1-.6-1.7-.8-1.3-.3-2.1-.3h-2.1v8.1c.2,0,.5,0,.8,0s.8,0,1.2,0Z"/>
    <path class="cls-3" d="M204.3,81.7c-2,.6-3.5.8-4.4.8-5.8,0-9.4-2.6-10.9-7.9l-1.3-5.3h-2.2v12.5h-10.5v-33h14.7c1.9,0,3.7.2,5.4.6s3.1,1.1,4.4,1.9,2.2,1.8,2.9,3,1.1,2.6,1.1,4.1-.1,2.2-.4,3.1-.7,1.7-1.3,2.5-1.2,1.4-2,1.9-1.7,1.1-2.7,1.5l.2,1.1c0,.3,0,.5.1.7v.5c.1,0,.4,1,.4,1,.2.6.4,1.1.6,1.5s.6.8.9,1,.8.4,1.4.6,1.2.2,2,.2.3,0,.6,0,.6,0,1.1-.1v7.8ZM193.7,59c0-.6-.1-1.1-.4-1.5s-.6-.7-1.1-.9-1-.4-1.6-.5-1.3-.1-2-.1h-3.3v6.6h3.4c.6-.1,1.2-.2,1.8-.3s1.1-.3,1.6-.6.8-.6,1.1-1,.4-1,.4-1.7Z"/>
    <path class="cls-3" d="M206.5,65.4c0-4.8,1.5-8.8,4.5-12,3.2-3.5,7.6-5.2,13.1-5.2s5.1.4,7.3,1.3,4,2.1,5.6,3.6,2.7,3.4,3.5,5.5,1.2,4.4,1.2,6.9-.2,3-.5,4.4-.9,2.8-1.5,4.1-1.5,2.4-2.5,3.5-2.2,2-3.5,2.8-2.8,1.4-4.4,1.8-3.3.6-5.2.6-3.7-.2-5.3-.7-3.1-1-4.4-1.8-2.5-1.7-3.5-2.8-1.8-2.3-2.5-3.5-1.2-2.6-1.5-4-.5-2.9-.5-4.4ZM224.2,73.9c1.2,0,2.3-.3,3.2-.8s1.6-1.2,2.1-2,1-1.7,1.2-2.8.4-2,.4-3-.2-2.4-.5-3.5-.8-2-1.4-2.7-1.3-1.4-2.2-1.8-1.8-.7-2.8-.8c-1.2,0-2.3.3-3.2.8s-1.6,1.2-2.1,2.1-1,1.8-1.2,2.8-.4,2.1-.4,3.1.2,2.3.5,3.4.8,1.9,1.4,2.7,1.3,1.4,2.2,1.8,1.8.7,2.9.7Z"/>
    <path class="cls-3" d="M246.5,48.8h14.3c2.7,0,5.1.4,7.3,1.2s4,1.9,5.6,3.4,2.7,3.2,3.6,5.1,1.3,4.2,1.3,6.6-.4,4.8-1.3,6.8-2,3.8-3.6,5.3-3.4,2.6-5.6,3.4-4.6,1.2-7.3,1.2h-14.3v-33ZM260.8,73.2c1.2,0,2.2-.3,3.1-.8s1.6-1.2,2.1-2,1-1.7,1.2-2.6.4-1.9.4-2.8-.2-2.1-.5-3-.8-1.7-1.4-2.4-1.3-1.2-2.2-1.6-1.8-.6-2.8-.6h-3.8v15.8h3.8Z"/>
    <path class="cls-2" d="M283.1,48.8h11.1v13.5h3.5l6.4-13.5h11.1v2.2l-7.6,14.2,8.7,14.5v2.2h-11.7l-7.1-13.1h-3.3v13.1h-11.1v-33Z"/>
    <path class="cls-2" d="M326.2,48.8h14.6l9.6,33h-11.3l-1.3-6.3h-8.5l-1.4,6.3h-10.8l9.1-33ZM336.6,69.6l-3.1-14.4-3.2,14.4h6.4Z"/>
    <path class="cls-2" d="M356.1,55.8h-6.8v-7h24.9v7h-6.8v26h-11.2v-26Z"/>
  </g>
</svg>