<?xml version="1.0" encoding="UTF-8"?>
<svg id="Calque_1" data-name="Calque 1" xmlns="http://www.w3.org/2000/svg" version="1.1" viewBox="0 0 400 130">
  <defs>
    <style>
      .cls-1 {
        fill: #000;
      }

      .cls-1, .cls-2, .cls-3 {
        stroke-width: 0px;
      }

      .cls-2 {
        fill: #fff;
      }

      .cls-3 {
        fill: #2c91ad;
      }
    </style>
  </defs>
  <g>
    <path class="cls-1" d="M69.82,72.75c2.87.66,5.59,1.48,8.37,1.9,12.51,1.89,24.87-5.98,28.54-18.08,2.93-9.67-.68-20.44-8.91-26.81-5.18-4.02-11.1-5.74-17.55-5.76-11.24-.04-22.48,0-33.72,0-.84,0-1.68,0-2.62,0V7.27c.21-.03.49-.12.77-.12,13.15.02,26.3-.08,39.45.1,21.88.29,38.96,16.83,41.55,38.06,2.22,18.19-8.1,37.08-27.55,44.01-8.51,2.68-26.41,1.86-29.28,10.45.67-1.63.89-3.54.92-5.33.1-7.25.04-14.51.04-21.69Z"/>
    <path class="cls-1" d="M43.9,122.97V28.81h28.66c-1.1.91-2.05,1.69-3,2.48-4.82,3.98-7.16,9.13-7.16,15.36-.01,15.57-.19,31.15.03,46.71.13,8.97-3.28,16.2-9.35,22.45-2.67,2.75-5.67,5.09-9.19,7.16ZM48.13,45.38c.12.03.24.06.37.09.52-5.3,1.23-10.48,7.51-12.24h-7.87v12.14Z"/>
    <path class="cls-3" d="M69.81,52.12c0-2.54-.01-5.09,0-7.63.05-7.18,4.73-11.84,11.89-12.5,8.98-.82,18.09,6.4,18.37,16.77.28,10.38-7.49,18.51-17.62,18.47-4.41-.02-8.33-1.29-11.56-4.4-.74-.72-1.12-1.49-1.09-2.57.07-2.71.02-5.43.02-8.14h0ZM82.11,43.46c-3.26.02-5.92,2.78-5.88,6.1.04,3.19,2.92,5.94,6.16,5.88,3.12-.05,5.74-2.72,5.74-5.83,0-3.33-2.79-6.18-6.01-6.16Z"/>
    <path class="cls-2" d="M48.13,45.38v-12.14h7.87c-6.28,1.76-6.99,6.94-7.51,12.24-.12-.03-.24-.06-.37-.09Z"/>
    <path class="cls-2" d="M82.11,43.46c3.22-.02,6,2.83,6.01,6.16,0,3.1-2.62,5.77-5.74,5.83-3.24.06-6.11-2.7-6.16-5.88-.04-3.32,2.61-6.08,5.88-6.1Z"/>
  </g>
  <g>
    <path class="cls-3" d="M6.85,86.27v-42.44c2.23.84,4.36,1.62,6.48,2.43,3.48,1.33,6.95,2.68,10.44,3.99,1.02.38,1.44.9,1.43,2.12-.09,8.18-.09,16.36-.05,24.54,0,1.03-.36,1.5-1.25,1.88-5.5,2.42-10.99,4.89-16.48,7.34-.15.07-.32.08-.57.13ZM10.72,67.13c.16.02.32.03.48.05.05-.18.12-.36.16-.55,1.17-4.83.99-9.76,1.11-14.67.04-1.47-.73-1.99-1.76-2.32v17.49Z"/>
    <path class="cls-3" d="M30.15,64.19c0-3.27,0-6.53,0-9.8,0-.25,0-.51,0-.76.06-1.75,1.08-2.99,2.47-3.01,1.52-.02,2.58,1.17,2.59,3.01,0,7.04,0,14.08-.08,21.12,0,.78-.3,1.83-.84,2.24-.63.48-1.74.67-2.54.5-1.15-.25-1.56-1.35-1.57-2.49-.02-3.6,0-7.21,0-10.81,0,0-.02,0-.03,0Z"/>
    <path class="cls-2" d="M10.72,67.13v-17.49c1.03.33,1.79.86,1.76,2.32-.12,4.91.06,9.84-1.11,14.67-.04.18-.11.36-.16.55-.16-.02-.32-.03-.48-.05Z"/>
  </g>
  <g>
    <path class="cls-3" d="M138.47,46.78h13.18c2.73,0,5.16.27,7.29.8s3.92,1.32,5.37,2.36,2.56,2.3,3.32,3.8,1.14,3.2,1.14,5.12-.43,3.54-1.3,5.01-2.05,2.72-3.55,3.75-3.26,1.82-5.28,2.36-4.17.82-6.47.82h-2.23v12.5h-11.47v-36.53ZM152.22,63.43c1.83,0,3.27-.38,4.31-1.14s1.56-1.9,1.56-3.42c0-.74-.15-1.39-.45-1.95s-.72-1.02-1.25-1.39-1.15-.65-1.85-.84-1.48-.29-2.31-.29h-2.28v8.92c.24.03.55.06.93.08s.83.03,1.35.03Z"/>
    <path class="cls-3" d="M205.53,83.2c-2.27.62-3.9.93-4.9.93-6.42,0-10.45-2.92-12.09-8.77l-1.45-5.91h-2.49v13.85h-11.62v-36.53h16.24c2.11,0,4.09.24,5.94.71s3.46,1.17,4.84,2.08,2.46,2.03,3.24,3.36,1.18,2.86,1.18,4.59c0,1.28-.16,2.43-.48,3.44s-.78,1.92-1.39,2.72-1.34,1.52-2.22,2.14-1.86,1.18-2.97,1.66l.23,1.27c.05.29.1.54.16.75l.13.52.29,1.12c.21.66.45,1.21.71,1.67s.61.83,1.02,1.12.93.49,1.54.62,1.36.19,2.24.19c.14,0,.36-.02.66-.05s.7-.09,1.18-.16v8.66ZM193.78,58.04c0-.67-.14-1.23-.43-1.67s-.68-.79-1.18-1.04-1.09-.42-1.76-.52-1.4-.14-2.18-.14h-3.63v7.32h2.02l1.71-.08c.67-.05,1.34-.14,1.98-.27s1.23-.34,1.75-.62.93-.67,1.25-1.14.47-1.09.47-1.83Z"/>
    <path class="cls-3" d="M207.97,65.09c0-5.27,1.68-9.72,5.03-13.33,3.58-3.86,8.42-5.78,14.53-5.78,2.97,0,5.66.48,8.07,1.44s4.45,2.29,6.15,3.98,3,3.71,3.92,6.06,1.37,4.89,1.37,7.64c0,1.66-.19,3.29-.57,4.88s-.95,3.09-1.7,4.5-1.68,2.71-2.79,3.89-2.38,2.21-3.83,3.06-3.05,1.52-4.83,2-3.71.71-5.8.71-4.11-.24-5.9-.73-3.41-1.16-4.86-2.02-2.73-1.89-3.83-3.09-2.01-2.49-2.75-3.9-1.29-2.9-1.66-4.47-.56-3.18-.56-4.83ZM227.53,74.48c1.37,0,2.53-.29,3.49-.87s1.75-1.32,2.36-2.23,1.06-1.92,1.35-3.05.43-2.22.43-3.29c0-1.4-.18-2.68-.53-3.85s-.86-2.18-1.53-3.04-1.47-1.53-2.41-2.04-1.99-.78-3.15-.83c-1.38.03-2.56.35-3.53.93s-1.76,1.34-2.37,2.27-1.06,1.96-1.35,3.11-.43,2.3-.43,3.44c0,1.35.18,2.6.53,3.75s.86,2.14,1.53,2.98,1.47,1.5,2.43,1.98,2.01.73,3.19.73Z"/>
    <path class="cls-3" d="M252.18,46.78h15.88c2.96,0,5.64.45,8.04,1.34s4.46,2.13,6.16,3.72,3.02,3.49,3.96,5.69,1.4,4.62,1.4,7.25c0,2.77-.46,5.29-1.39,7.56s-2.24,4.22-3.96,5.85-3.77,2.88-6.17,3.77-5.08,1.34-8.04,1.34h-15.88v-36.53ZM268.05,73.76c1.33,0,2.48-.29,3.44-.86s1.75-1.3,2.37-2.18,1.08-1.86,1.37-2.93.44-2.11.44-3.11c0-1.21-.19-2.33-.56-3.35s-.89-1.9-1.57-2.65-1.48-1.32-2.41-1.74-1.96-.62-3.09-.62h-4.15v17.43h4.15Z"/>
    <path class="cls-1" d="M292.78,46.78h12.3v14.89h3.84l7.06-14.89h12.3v2.39l-8.41,15.72,9.6,16.03v2.39h-12.92l-7.83-14.53h-3.63v14.53h-12.3v-36.53Z"/>
    <path class="cls-1" d="M340.4,46.78h16.14l10.58,36.53h-12.5l-1.4-7h-9.44l-1.5,7h-11.99l10.12-36.53ZM351.97,69.76l-3.48-15.98-3.58,15.98h7.06Z"/>
    <path class="cls-1" d="M373.56,54.51h-7.57v-7.73h27.55v7.73h-7.57v28.8h-12.4v-28.8Z"/>
  </g>
</svg>