<?xml version="1.0" encoding="UTF-8"?>
<svg id="Calque_1" data-name="Calque 1" xmlns="http://www.w3.org/2000/svg" version="1.1" viewBox="0 0 444.74 130">
  <defs>
    <style>
      .cls-1 {
        fill: #000;
      }

      .cls-1, .cls-2, .cls-3 {
        stroke-width: 0px;
      }

      .cls-2 {
        fill: #fff;
      }

      .cls-3 {
        fill: #2c91ad;
      }
    </style>
  </defs>
  <g>
    <g>
      <path class="cls-2" d="M69.61,56.05c2.33.49,4.48,1.09,6.74,1.4,10.16,1.39,20.21-4.4,23.19-13.3,2.38-7.12-.55-15.04-7.24-19.74-4.21-2.96-9.02-4.22-14.26-4.24-9.13-.03-18.27,0-27.4,0-.68,0-1.36,0-2.13,0V7.86c.17-.03.4-.09.62-.09,10.68.01,21.37-.06,32.05.07,17.78.21,31.65,12.38,33.76,28.01,1.81,13.39-6.58,27.29-22.38,32.39-6.91,1.97-20.62-.2-22.96,6.12.54-1.2-.02-1.04,0-2.35.08-5.34,0-10.68,0-15.96Z"/>
      <path class="cls-2" d="M69.61,75.26c2.33-.49,4.88-1.69,7.14-2,10.16-1.39,20.21,4.4,23.19,13.3,2.38,7.12-.55,15.04-7.24,19.74-4.21,2.96-9.02,4.22-14.26,4.24-9.13.03-13.68.65-14.45.65-2.17,3.7-9.06,8.14-15.08,11.66.17.03.4.09.62.09,10.68-.01,21.37.06,32.05-.07,17.78-.21,31.65-12.38,33.76-28.01,1.81-13.39-6.58-27.29-22.38-32.39-6.91-1.97-21.02-.1-23.35-6.42.54,1.2-.02,1.55,0,2.87.08,5.34,0,11.05,0,16.34Z"/>
      <path class="cls-2" d="M48.48,119.34V25.18h28.66c-1.1.91-2.05,1.69-3,2.48-4.82,3.98-7.16,9.13-7.16,15.36-.01,15.57-.19,31.15.03,46.71.13,8.97-3.28,16.2-9.35,22.45-2.67,2.75-5.67,5.09-9.19,7.16ZM52.71,41.76c.12.03.24.06.37.09.52-5.3,1.23-10.48,7.51-12.24h-7.87v12.14Z"/>
      <path class="cls-3" d="M74.39,41.46c0-1.66,0-3.32,0-4.98.03-4.68,3.09-7.72,7.75-8.15,5.85-.54,11.79,4.17,11.98,10.93.18,6.77-4.88,12.07-11.49,12.04-2.88-.01-5.43-.84-7.54-2.87-.48-.47-.73-.97-.71-1.67.05-1.77.02-3.54.02-5.31h0ZM82.4,35.82c-2.13.01-3.86,1.81-3.83,3.98.03,2.08,1.9,3.87,4.01,3.84,2.03-.04,3.74-1.78,3.74-3.8,0-2.17-1.82-4.03-3.92-4.02Z"/>
      <path class="cls-1" d="M52.71,41.76v-12.14h7.87c-6.28,1.76-6.99,6.94-7.51,12.24-.12-.03-.24-.06-.37-.09Z"/>
      <path class="cls-2" d="M82.4,35.82c2.1-.01,3.92,1.84,3.92,4.02,0,2.02-1.71,3.76-3.74,3.8-2.11.04-3.99-1.76-4.01-3.84-.03-2.16,1.7-3.96,3.83-3.98Z"/>
    </g>
    <g>
      <path class="cls-3" d="M11.43,82.65v-42.44c2.23.84,4.36,1.62,6.48,2.43,3.48,1.33,6.95,2.68,10.44,3.99,1.02.38,1.44.9,1.43,2.12-.09,8.18-.09,16.36-.05,24.54,0,1.03-.36,1.5-1.25,1.88-5.5,2.42-10.99,4.89-16.48,7.34-.15.07-.32.08-.57.13ZM15.3,63.5c.16.02.32.03.48.05.05-.18.12-.36.16-.55,1.17-4.83.99-9.76,1.11-14.67.04-1.47-.73-1.99-1.76-2.32v17.49Z"/>
      <path class="cls-3" d="M34.73,60.57c0-3.27,0-6.53,0-9.8,0-.25,0-.51,0-.76.06-1.75,1.08-2.99,2.47-3.01,1.52-.02,2.58,1.17,2.59,3.01,0,7.04,0,14.08-.08,21.12,0,.78-.3,1.83-.84,2.24-.63.48-1.74.67-2.54.5-1.15-.25-1.56-1.35-1.57-2.49-.02-3.6,0-7.21,0-10.81,0,0-.02,0-.03,0Z"/>
      <path class="cls-1" d="M15.3,63.5v-17.49c1.03.33,1.79.86,1.76,2.32-.12,4.91.06,9.84-1.11,14.67-.04.18-.11.36-.16.55-.16-.02-.32-.03-.48-.05Z"/>
    </g>
  </g>
  <path class="cls-3" d="M133.62,47.08h11.94c2.48,0,4.68.24,6.61.73s3.55,1.2,4.87,2.14,2.32,2.09,3.01,3.44,1.03,2.9,1.03,4.64-.39,3.21-1.18,4.54-1.86,2.46-3.22,3.4-2.96,1.65-4.78,2.14-3.78.74-5.87.74h-2.02v11.33h-10.39v-33.1ZM146.08,62.18c1.66,0,2.96-.34,3.9-1.03s1.41-1.72,1.41-3.1c0-.67-.14-1.26-.41-1.76s-.65-.92-1.13-1.26-1.04-.59-1.68-.76-1.34-.26-2.09-.26h-2.07v8.09c.22.03.5.05.85.07s.75.02,1.22.02Z"/>
  <path class="cls-3" d="M200.68,83.51c-2.27.62-3.9.93-4.9.93-6.42,0-10.45-2.92-12.09-8.77l-1.45-5.91h-2.49v13.85h-11.62v-36.53h16.24c2.11,0,4.09.24,5.94.71s3.46,1.17,4.84,2.08,2.46,2.03,3.24,3.36,1.18,2.86,1.18,4.59c0,1.28-.16,2.43-.48,3.44s-.78,1.92-1.39,2.72-1.34,1.52-2.22,2.14-1.86,1.18-2.97,1.66l.23,1.27c.05.29.1.54.16.75l.13.52.29,1.12c.21.66.45,1.21.71,1.67s.61.83,1.02,1.12.93.49,1.54.62,1.36.19,2.24.19c.14,0,.36-.02.66-.05s.7-.09,1.18-.16v8.66ZM188.93,58.34c0-.67-.14-1.23-.43-1.67s-.68-.79-1.18-1.04-1.09-.42-1.76-.52-1.4-.14-2.18-.14h-3.63v7.32h2.02l1.71-.08c.67-.05,1.34-.14,1.98-.27s1.23-.34,1.75-.62.93-.67,1.25-1.14.47-1.09.47-1.83Z"/>
  <path class="cls-3" d="M203.12,65.4c0-5.27,1.68-9.72,5.03-13.33,3.58-3.86,8.42-5.78,14.53-5.78,2.97,0,5.66.48,8.07,1.44s4.45,2.29,6.15,3.98,3,3.71,3.92,6.06,1.37,4.89,1.37,7.64c0,1.66-.19,3.29-.57,4.88s-.95,3.09-1.7,4.5-1.68,2.71-2.79,3.89-2.38,2.21-3.83,3.06-3.05,1.52-4.83,2-3.71.71-5.8.71-4.11-.24-5.9-.73-3.41-1.16-4.86-2.02-2.73-1.89-3.83-3.09-2.01-2.49-2.75-3.9-1.29-2.9-1.66-4.47-.56-3.18-.56-4.83ZM222.68,74.79c1.37,0,2.53-.29,3.49-.87s1.75-1.32,2.36-2.23,1.06-1.92,1.35-3.05.43-2.22.43-3.29c0-1.4-.18-2.68-.53-3.85s-.86-2.18-1.53-3.04-1.47-1.53-2.41-2.04-1.99-.78-3.15-.83c-1.38.03-2.56.35-3.53.93s-1.76,1.34-2.37,2.27-1.06,1.96-1.35,3.11-.43,2.3-.43,3.44c0,1.35.18,2.6.53,3.75s.86,2.14,1.53,2.98,1.47,1.5,2.43,1.98,2.01.73,3.19.73Z"/>
  <path class="cls-3" d="M286.92,47.08h15.88c2.96,0,5.64.45,8.04,1.34s4.46,2.13,6.16,3.72,3.02,3.49,3.96,5.69,1.4,4.62,1.4,7.25c0,2.77-.46,5.29-1.39,7.56s-2.24,4.22-3.96,5.85-3.77,2.88-6.17,3.77-5.08,1.34-8.04,1.34h-15.88v-36.53ZM302.8,74.06c1.33,0,2.48-.29,3.44-.86s1.75-1.3,2.37-2.18,1.08-1.86,1.37-2.93.44-2.11.44-3.11c0-1.21-.19-2.33-.56-3.35s-.89-1.9-1.57-2.65-1.48-1.32-2.41-1.74-1.96-.62-3.09-.62h-4.15v17.43h4.15Z"/>
  <path class="cls-2" d="M327.52,47.08h12.3v14.89h3.84l7.06-14.89h12.3v2.39l-8.41,15.72,9.6,16.03v2.39h-12.92l-7.83-14.53h-3.63v14.53h-12.3v-36.53Z"/>
  <path class="cls-2" d="M375.15,47.08h16.14l10.58,36.53h-12.5l-1.4-7h-9.44l-1.5,7h-11.99l10.12-36.53ZM386.72,70.07l-3.48-15.98-3.58,15.98h7.06Z"/>
  <path class="cls-3" d="M255.64,47.08h16.14l10.58,36.53h-12.5l-1.4-7h-9.44l-1.5,7h-11.99l10.12-36.53ZM267.21,70.07l-3.48-15.98-3.58,15.98h7.06Z"/>
  <path class="cls-2" d="M408.31,54.81h-7.57v-7.73h27.55v7.73h-7.57v28.8h-12.4v-28.8Z"/>
  <path class="cls-3" d="M133.62,50.92h10.39v11.33s2.02,0,2.02,0c2.08,0,4.04.25,5.87.74s3.42,1.21,4.78,2.14,2.44,2.07,3.22,3.4,1.18,2.84,1.18,4.54-.34,3.29-1.03,4.64-1.69,2.5-3.01,3.44-2.94,1.65-4.87,2.14-4.13.73-6.61.73h-11.94v-33.1ZM144.86,68.95c-.34.02-.63.04-.85.07v8.09s2.07,0,2.07,0c.75,0,1.45-.09,2.09-.26s1.2-.43,1.68-.76.85-.76,1.13-1.26.41-1.09.41-1.76c0-1.38-.47-2.41-1.41-3.1s-2.24-1.03-3.9-1.03c-.47,0-.88,0-1.22.02Z"/>
</svg>