<?xml version="1.0" encoding="UTF-8"?>
<svg id="Calque_1" data-name="Calque 1" xmlns="http://www.w3.org/2000/svg" version="1.1" viewBox="0 0 325.1 325.1">
  <defs>
    <style>
      .cls-1 {
        fill: #f9fbfc;
      }

      .cls-1, .cls-2, .cls-3 {
        stroke-width: 0px;
      }

      .cls-2 {
        fill: #136d7c;
      }

      .cls-3 {
        fill: #2c91ad;
      }
    </style>
  </defs>
  <path class="cls-1" d="M549,89.4c10.8-6.9,17.9-19,17.9-32.8,0-21.5-17.4-39-39-39s-39,17.4-39,39,7.2,25.8,18,32.8c-25.4,2.3-45.4,23.7-45.4,49.7v41.1c.1,0,2.9.9,2.9.9,26.2,8.2,49.1,10.9,67.8,10.9,36.7,0,57.9-10.5,59.2-11.1l2.6-1.3h.3v-40.4c0-26-20-47.4-45.4-49.7Z"/>
  <g>
    <rect class="cls-2" x="10.6" y="64.9" width="305.9" height="227.5"/>
    <rect class="cls-3" x="10.6" y="32.7" width="305.9" height="243.6"/>
    <path class="cls-1" d="M73.8,116.6v98.1l57.1-48.5-57.1-49.6ZM165.5,196.8l-23.5-20.6-61.6,52.8c1.2.5,2.4.7,3.8.7h162.8c1.3,0,2.5-.2,3.7-.7l-61.6-52.8-23.5,20.6ZM200.1,166.2l57.1,48.5v-98.2l-57.1,49.7ZM165.6,179l83.1-73.4c3.1-2.7,1.1-7.8-2.9-7.8H85.5c-4.1,0-6,5.1-2.9,7.8l83.1,73.4Z"/>
    <rect class="cls-2" x="304.1" y="32.7" width="12.2" height="254.7"/>
  </g>
</svg>