<?xml version="1.0" encoding="UTF-8"?>
<svg id="Calque_1" data-name="Calque 1" xmlns="http://www.w3.org/2000/svg" version="1.1" viewBox="0 0 100 100">
  <defs>
    <style>
      .cls-1 {
        stroke: #2c91ad;
        stroke-miterlimit: 10;
        stroke-width: 7px;
      }

      .cls-1, .cls-2 {
        fill: #2c91ad;
      }

      .cls-3 {
        fill: #fff;
      }

      .cls-3, .cls-2 {
        stroke-width: 0px;
      }
    </style>
  </defs>
  <path class="cls-1" d="M138.72,93.24c-3.29,0-6.38-1.46-8.48-4.01-2.04-2.49-2.85-5.7-2.23-8.82,2.46-12.27,10.25-22.6,21.05-28.4-4.55-4.91-7.18-11.42-7.18-18.31,0-14.85,12.08-26.94,26.93-26.94s26.93,12.08,26.93,26.94c0,6.89-2.63,13.4-7.18,18.31,10.79,5.8,18.59,16.12,21.05,28.39.62,3.12-.19,6.33-2.23,8.82-2.09,2.55-5.18,4.01-8.48,4.01h-60.18Z"/>
  <path class="cls-3" d="M205.07,81.31c-2.68-13.4-12.62-24.15-25.52-28.06,6.89-3.8,11.57-11.12,11.57-19.55,0-12.32-9.99-22.31-22.31-22.31s-22.31,9.99-22.31,22.31c0,8.43,4.67,15.75,11.57,19.55-12.9,3.91-22.84,14.66-25.52,28.06-.76,3.8,2.3,7.3,6.17,7.3h60.18c3.87,0,6.93-3.51,6.17-7.3Z"/>
  <g>
    <path class="cls-2" d="M85.25,96.49c-3,0-5.82-1.17-7.94-3.29l-19.16-19.16c-5.18,2.68-10.91,4.08-16.84,4.08-9.84,0-19.08-3.83-26.02-10.78-6.94-6.94-10.76-16.18-10.76-26.02s3.82-19.08,10.76-26.02c6.95-6.95,16.19-10.78,26.02-10.78s19.07,3.83,26.02,10.78c11.45,11.45,13.95,28.8,6.68,42.85l19.17,19.17c4.38,4.38,4.38,11.5,0,15.87-2.12,2.12-4.94,3.29-7.94,3.29ZM41.31,26.99c-3.84,0-7.44,1.49-10.14,4.2-2.71,2.71-4.2,6.31-4.2,10.14s1.49,7.44,4.19,10.15c2.71,2.71,6.31,4.2,10.14,4.2s7.43-1.49,10.14-4.2c2.7-2.7,4.19-6.31,4.19-10.15s-1.49-7.44-4.19-10.14c-2.71-2.71-6.31-4.2-10.14-4.2Z"/>
    <path class="cls-3" d="M85.25,88.81c-.95,0-1.84-.37-2.51-1.04l-23.48-23.48-1.32.93c-4.88,3.42-10.63,5.23-16.62,5.23-7.78,0-15.1-3.03-20.59-8.53-5.49-5.49-8.51-12.8-8.51-20.59s3.02-15.1,8.51-20.59c5.5-5.5,12.81-8.53,20.59-8.53s15.09,3.03,20.59,8.53c9.98,9.98,11.37,25.63,3.29,37.21l-.92,1.32,23.48,23.48c1.38,1.38,1.38,3.63,0,5.02-.67.67-1.56,1.04-2.51,1.04ZM41.31,19.31c-5.89,0-11.42,2.29-15.57,6.45-4.15,4.15-6.44,9.68-6.44,15.57s2.29,11.42,6.44,15.57c4.16,4.16,9.69,6.45,15.57,6.45s11.41-2.29,15.57-6.45c4.15-4.16,6.44-9.69,6.44-15.57s-2.29-11.42-6.44-15.57c-4.16-4.16-9.68-6.45-15.57-6.45Z"/>
  </g>
</svg>