<?xml version="1.0" encoding="UTF-8"?>
<svg id="Calque_1" data-name="Calque 1" xmlns="http://www.w3.org/2000/svg" version="1.1" viewBox="0 0 100 100">
  <defs>
    <style>
      .cls-1 {
        fill: #2c91ad;
        stroke-width: 0px;
      }
    </style>
  </defs>
  <path class="cls-1" d="M41.21,19.2c-5.89,0-11.42,2.29-15.57,6.45-4.15,4.15-6.44,9.68-6.44,15.57s2.29,11.42,6.44,15.57c4.16,4.16,9.69,6.45,15.57,6.45s11.41-2.29,15.57-6.45c4.15-4.16,6.44-9.69,6.44-15.57s-2.29-11.42-6.44-15.57c-4.16-4.16-9.68-6.45-15.57-6.45ZM51.35,51.37c-2.71,2.71-6.31,4.2-10.14,4.2s-7.44-1.49-10.14-4.2c-2.7-2.7-4.19-6.31-4.19-10.15s1.49-7.44,4.2-10.14c2.7-2.71,6.31-4.2,10.14-4.2s7.43,1.49,10.14,4.2,4.19,6.31,4.19,10.14-1.49,7.44-4.19,10.15Z"/>
  <path class="cls-1" d="M93.08,77.22l-19.17-19.17c7.27-14.05,4.77-31.4-6.68-42.85-6.95-6.95-16.19-10.78-26.02-10.78s-19.07,3.83-26.02,10.78c-6.94,6.94-10.76,16.18-10.76,26.02s3.82,19.08,10.76,26.02c6.95,6.95,16.19,10.78,26.02,10.78,5.93,0,11.66-1.4,16.84-4.08l19.16,19.16c2.12,2.12,4.94,3.29,7.94,3.29s5.82-1.17,7.94-3.29c4.38-4.38,4.38-11.5,0-15.87ZM87.65,87.67c-.67.67-1.56,1.04-2.51,1.04s-1.84-.37-2.51-1.04l-23.48-23.48-1.32.93c-4.88,3.42-10.63,5.23-16.62,5.23-7.78,0-15.1-3.03-20.59-8.53-5.49-5.49-8.51-12.8-8.51-20.59s3.02-15.1,8.51-20.59c5.5-5.5,12.81-8.53,20.59-8.53s15.09,3.03,20.59,8.53c9.98,9.98,11.37,25.63,3.29,37.21l-.92,1.32,23.48,23.48c1.38,1.38,1.38,3.63,0,5.02Z"/>
</svg>