<?xml version="1.0" encoding="UTF-8"?>
<svg id="Calque_1" data-name="Calque 1" xmlns="http://www.w3.org/2000/svg" version="1.1" viewBox="0 0 100 100">
  <defs>
    <style>
      .cls-1 {
        fill: none;
        stroke: #2c91ad;
        stroke-miterlimit: 10;
        stroke-width: 7px;
      }
    </style>
  </defs>
  <path class="cls-1" d="M19.91,93.24c-3.29,0-6.38-1.46-8.48-4.01-2.04-2.49-2.85-5.7-2.23-8.82,2.46-12.27,10.25-22.6,21.05-28.4-4.55-4.91-7.18-11.42-7.18-18.31,0-14.85,12.08-26.94,26.93-26.94s26.93,12.08,26.93,26.94c0,6.89-2.63,13.4-7.18,18.31,10.79,5.8,18.59,16.12,21.05,28.39.62,3.12-.19,6.33-2.23,8.82-2.09,2.55-5.18,4.01-8.48,4.01H19.91Z"/>
</svg>