<?xml version="1.0" encoding="UTF-8"?>
<svg id="Calque_1" data-name="Calque 1" xmlns="http://www.w3.org/2000/svg" version="1.1" viewBox="0 0 325.14 325.14">
  <defs>
    <style>
      .cls-1 {
        fill: #fff;
        stroke-width: 0px;
      }

      .cls-2 {
        fill: #2c91ad;
        stroke: #fff;
        stroke-miterlimit: 10;
        stroke-width: 13px;
      }
    </style>
  </defs>
  <circle class="cls-2" cx="162.57" cy="162.57" r="138.89"/>
  <g>
    <path class="cls-1" d="M233.53,238.98c-4.54,0-8.23-3.68-8.23-8.23v-18.88c0-19.28-15.69-34.97-34.97-34.97h-55.51c-19.28,0-34.97,15.69-34.97,34.97v18.88c0,4.54-3.68,8.23-8.23,8.23s-8.23-3.68-8.23-8.23v-18.88c0-28.36,23.07-51.43,51.43-51.43h55.51c28.36,0,51.43,23.07,51.43,51.43v18.88c0,4.54-3.68,8.23-8.23,8.23Z"/>
    <path class="cls-1" d="M162.57,151.36c-21.75,0-39.45-17.69-39.45-39.45s17.69-39.45,39.45-39.45,39.45,17.7,39.45,39.45-17.7,39.45-39.45,39.45ZM162.57,88.92c-12.68,0-22.99,10.31-22.99,22.99s10.31,22.99,22.99,22.99,22.99-10.31,22.99-22.99-10.31-22.99-22.99-22.99Z"/>
  </g>
</svg>