<?xml version="1.0" encoding="UTF-8"?>
<svg id="Calque_1" data-name="Calque 1" xmlns="http://www.w3.org/2000/svg" version="1.1" viewBox="0 0 100 100">
  <defs>
    <style>
      .cls-1 {
        stroke: #2c91ad;
        stroke-miterlimit: 10;
        stroke-width: 7px;
      }

      .cls-1, .cls-2 {
        fill: #2c91ad;
      }

      .cls-3 {
        fill: #fff;
      }

      .cls-3, .cls-2 {
        stroke-width: 0px;
      }
    </style>
  </defs>
  <path class="cls-1" d="M19.91,93.24c-3.29,0-6.38-1.46-8.48-4.01-2.04-2.49-2.85-5.7-2.23-8.82,2.46-12.27,10.25-22.6,21.05-28.4-4.55-4.91-7.18-11.42-7.18-18.31,0-14.85,12.08-26.94,26.93-26.94s26.93,12.08,26.93,26.94c0,6.89-2.63,13.4-7.18,18.31,10.79,5.8,18.59,16.12,21.05,28.39.62,3.12-.19,6.33-2.23,8.82-2.09,2.55-5.18,4.01-8.48,4.01H19.91Z"/>
  <path class="cls-3" d="M86.26,81.31c-2.68-13.4-12.62-24.15-25.52-28.06,6.89-3.8,11.57-11.12,11.57-19.55,0-12.32-9.99-22.31-22.31-22.31s-22.31,9.99-22.31,22.31c0,8.43,4.67,15.75,11.57,19.55-12.9,3.91-22.84,14.66-25.52,28.06-.76,3.8,2.3,7.3,6.17,7.3h60.18c3.87,0,6.93-3.51,6.17-7.3Z"/>
  <g>
    <path class="cls-2" d="M-19.69,96.49c-3.07,0-5.95-1.19-8.12-3.37l-19.6-19.6c-5.3,2.74-11.17,4.18-17.23,4.18-10.06,0-19.52-3.92-26.63-11.03-7.1-7.1-11.01-16.55-11.01-26.62s3.91-19.52,11.01-26.62c7.11-7.11,16.56-11.03,26.62-11.03s19.51,3.92,26.62,11.03c11.72,11.71,14.27,29.47,6.84,43.84l19.61,19.61c4.48,4.48,4.48,11.76,0,16.24-2.17,2.17-5.05,3.37-8.12,3.37ZM-64.64,25.38c-3.92,0-7.61,1.53-10.38,4.3-2.77,2.77-4.29,6.45-4.29,10.38s1.52,7.61,4.29,10.38c2.77,2.77,6.46,4.3,10.38,4.3s7.61-1.52,10.38-4.3c2.77-2.77,4.29-6.45,4.29-10.38s-1.52-7.61-4.29-10.38c-2.77-2.77-6.46-4.3-10.38-4.3Z"/>
    <path class="cls-3" d="M-19.69,88.64c-.97,0-1.88-.38-2.57-1.06l-24.02-24.02-1.35.95c-4.99,3.5-10.87,5.35-17.01,5.35-7.96,0-15.45-3.1-21.07-8.73-5.62-5.62-8.71-13.1-8.71-21.07s3.09-15.45,8.71-21.07c5.63-5.63,13.11-8.73,21.07-8.73s15.44,3.1,21.07,8.73c10.22,10.21,11.63,26.23,3.37,38.08l-.94,1.35,24.03,24.03c1.42,1.42,1.42,3.72,0,5.13-.69.69-1.6,1.06-2.57,1.06ZM-64.64,17.52c-6.02,0-11.68,2.34-15.93,6.6-4.25,4.25-6.59,9.91-6.59,15.93s2.34,11.69,6.59,15.94c4.25,4.25,9.91,6.6,15.93,6.6s11.68-2.34,15.93-6.6c4.25-4.25,6.59-9.91,6.59-15.94s-2.34-11.68-6.59-15.93c-4.25-4.26-9.91-6.6-15.93-6.6Z"/>
  </g>
</svg>